<svg width="158" height="94" viewBox="0 0 158 94" fill="none" xmlns="http://www.w3.org/2000/svg">
<path d="M0 93.1945C0 93.1945 26.2986 86.5466 44.5206 67.2637H54.8866V93.6296H43.3234L32.9574 87.0919H48.123V74.7819C48.123 74.7819 20.9528 95.0451 0 93.1945Z" fill="#E2383A"/>
<path d="M63.3824 74.7985H77.7537C78.2336 74.7985 78.4708 75.1069 78.4708 75.7238L78.4543 77.624C78.4543 78.2519 78.2116 78.5658 77.7206 78.5658H63.3824L63.399 89.8844L77.715 89.8679C78.2171 89.8679 78.4708 90.1818 78.4708 90.8097L78.4543 92.6934C78.4543 93.3213 78.2116 93.6352 77.7206 93.6352H64.1603C61.6336 93.6352 60.3702 92.0655 60.3702 88.926V78.5658H58.1083C57.6063 78.5658 57.3525 78.2519 57.3525 77.624V75.7403C57.3525 75.1124 57.6063 74.7985 58.1083 74.7985H60.3702V68.2056C60.3702 67.5777 60.624 67.2638 61.126 67.2638H62.6376C63.1397 67.2638 63.3934 67.5777 63.3934 68.2056V74.7985H63.3824Z" fill="#132945"/>
<path d="M83.381 74.7985H97.7191C100.235 74.7985 101.493 76.3682 101.493 79.5077V92.6879C101.493 93.3158 101.239 93.6297 100.737 93.6297H99.2473C98.7287 93.6297 98.4749 93.3158 98.4749 92.6879V78.5659L83.403 78.5493L83.3865 92.6934C83.3865 93.3103 83.1327 93.6242 82.6307 93.6352H81.1191C80.6171 93.6352 80.3633 93.3213 80.3633 92.6934V68.2112C80.3633 67.5833 80.6171 67.2693 81.1191 67.2693H82.6307C83.1327 67.2693 83.3865 67.5833 83.3865 68.2112V74.7985H83.381Z" fill="#132945"/>
<path d="M105.657 93.6298H104.151C103.649 93.6298 103.395 93.3158 103.395 92.6879L103.379 68.2057H103.395C103.395 67.5778 103.649 67.2639 104.151 67.2639H105.657C106.159 67.2639 106.413 67.5778 106.413 68.2057V92.6879C106.413 93.3158 106.159 93.6298 105.657 93.6298Z" fill="#132945"/>
<path d="M110.578 93.6298H109.072C108.57 93.6298 108.316 93.3159 108.316 92.688L108.3 75.7404H108.316C108.316 75.1125 108.57 74.7986 109.072 74.7986H110.578C111.08 74.7986 111.334 75.1125 111.334 75.7404V92.688C111.334 93.3159 111.08 93.6298 110.578 93.6298ZM108.316 71.9731V70.0894C108.316 69.4615 108.57 69.1476 109.072 69.1476H110.578C111.08 69.1476 111.34 69.4615 111.351 70.0894V71.9731C111.34 72.601 111.08 72.9149 110.578 72.9149H109.05C108.559 72.9149 108.316 72.601 108.316 71.9731Z" fill="#132945"/>
<path d="M115.505 93.6298H113.993C113.491 93.6298 113.237 93.3158 113.237 92.688V75.7404C113.237 75.1125 113.491 74.7986 113.993 74.7986H130.593C133.109 74.7986 134.367 76.3683 134.367 79.5078V92.688C134.367 93.3158 134.113 93.6298 133.611 93.6298H132.121C131.603 93.6298 131.349 93.3158 131.349 92.688V78.5659L116.277 78.5494L116.261 92.6935C116.255 93.3048 116.007 93.6188 115.505 93.6298Z" fill="#132945"/>
<path d="M139.271 85.5167V92.6934C139.271 93.3213 139.017 93.6352 138.515 93.6352H137.004C136.502 93.6352 136.248 93.3213 136.248 92.6934V68.2112C136.259 67.5833 136.513 67.2693 137.004 67.2693H138.515C139.017 67.2693 139.271 67.5833 139.271 68.2112V82.917C139.525 82.526 139.9 82.1735 140.402 81.865L151.342 74.804H157.377L143.039 84.2224L157.377 93.6407H151.342L140.402 86.5797C139.9 86.2548 139.52 85.9023 139.271 85.5167Z" fill="#132945"/>
<path d="M96.7605 17.6497C92.4615 19.2906 89.0596 21.9131 86.3897 25.7179C86.8777 25.9257 87.2509 26.0834 87.617 26.241C91.5643 27.9464 94.9591 30.2966 96.9256 34.2877C97.6218 35.6993 97.6074 35.7208 96.2725 36.5591C90.5954 40.1131 84.7533 43.359 78.3586 45.4656C77.8705 45.6304 77.3682 45.7522 76.7725 45.7021C81.2653 42.1552 85.7581 38.6084 90.4734 34.8824C89.7629 34.7176 89.3179 34.6101 88.8658 34.517C86.404 33.9939 84.0572 33.1699 82.0045 31.6795C78.4519 29.0856 77.5332 25.4886 79.3777 21.4975C82.6002 14.5543 90.9902 12.6197 96.7605 17.6497Z" fill="#132945"/>
<path d="M88.6363 10.8571C88.4928 9.68194 88.4497 8.54265 88.1913 7.46068C87.6674 5.30391 86.2751 3.80635 84.244 2.96084C83.8133 2.78171 83.2033 2.81754 82.7439 2.96084C80.2392 3.7562 77.7487 4.61604 75.1865 5.30391C78.043 3.55557 80.8923 1.80006 83.7703 0.0947031C84.0574 -0.0772653 84.5741 0.0158843 84.9473 0.13053C93.5741 2.74588 99.7823 8.14856 103.586 16.3099C103.744 16.6538 103.895 16.9978 104.06 17.3345C104.088 17.3919 104.167 17.4349 104.34 17.5853C106.6 15.1348 108.861 12.6771 111.122 10.2193C111.194 10.2552 111.258 10.2982 111.33 10.334C109.421 14.5902 107.519 18.8464 105.56 23.2245C102.646 21.2683 99.8253 19.5343 98.1459 16.2956C96.3444 12.8204 93.244 10.9574 89.2105 10.8857C88.988 10.8786 88.7655 10.8642 88.6363 10.8571Z" fill="#E2383A"/>
<path d="M50.7988 47.3646C59.806 40.0201 68.9137 32.8476 76.6003 23.8551C76.5429 26.5708 76.7725 29.1216 78.9687 31.0993C70.7582 38.6802 61.5931 44.434 50.7988 47.3646Z" fill="#132945"/>
<path d="M96.5674 1.68546C99.1368 1.43467 101.828 1.45617 104.347 2.71727C106.902 3.98554 108.295 7.19562 107.484 9.90412C107.39 10.2194 107.01 10.5705 106.687 10.678C105.51 11.0792 104.175 11.8674 103.156 11.588C102.209 11.33 101.498 9.94711 100.831 8.95829C100.127 7.91932 99.6104 6.75853 98.9717 5.67656C98.2037 4.35814 97.3999 3.06837 96.5674 1.68546Z" fill="#132945"/>
</svg>
