<svg width="158" height="95" viewBox="0 0 158 95" fill="none" xmlns="http://www.w3.org/2000/svg">
<path d="M0 93.5632C0 93.5632 26.4026 86.8889 44.6966 67.5298H55.1037V94H43.4947L33.0877 87.4364H48.3133V75.0777C48.3133 75.0777 21.0357 95.4211 0 93.5632Z" fill="#E2383A"/>
<path d="M63.6328 75.0943H78.0609C78.5428 75.0943 78.7809 75.404 78.7809 76.0233L78.7643 77.931C78.7643 78.5614 78.5206 78.8766 78.0277 78.8766H63.6328L63.6494 90.2399L78.0221 90.2233C78.5261 90.2233 78.7809 90.5385 78.7809 91.1688L78.7643 93.06C78.7643 93.6903 78.5206 94.0055 78.0277 94.0055H64.4138C61.8771 94.0055 60.6087 92.4296 60.6087 89.2777V78.8766H58.3379C57.8339 78.8766 57.5791 78.5614 57.5791 77.931V76.0399C57.5791 75.4095 57.8339 75.0943 58.3379 75.0943H60.6087V68.4754C60.6087 67.845 60.8635 67.5298 61.3675 67.5298H62.8851C63.3891 67.5298 63.6439 67.845 63.6439 68.4754V75.0943H63.6328Z" fill="white"/>
<path d="M83.7103 75.0943H98.1051C100.631 75.0943 101.894 76.6703 101.894 79.8221V93.0545C101.894 93.6848 101.639 94 101.135 94H99.6393C99.1187 94 98.8639 93.6848 98.8639 93.0545V78.8766L83.7324 78.86L83.7158 93.06C83.7158 93.6793 83.461 93.9945 82.957 94.0055H81.4395C80.9354 94.0055 80.6807 93.6904 80.6807 93.06V68.481C80.6807 67.8506 80.9354 67.5354 81.4395 67.5354H82.957C83.461 67.5354 83.7158 67.8506 83.7158 68.481V75.0943H83.7103Z" fill="white"/>
<path d="M106.076 94H104.563C104.059 94 103.805 93.6848 103.805 93.0544L103.788 68.4754H103.805C103.805 67.845 104.059 67.5298 104.563 67.5298H106.076C106.58 67.5298 106.834 67.845 106.834 68.4754V93.0544C106.834 93.6848 106.58 94 106.076 94Z" fill="white"/>
<path d="M111.016 94H109.504C109 94 108.745 93.6848 108.745 93.0544L108.729 76.0399H108.745C108.745 75.4095 109 75.0943 109.504 75.0943H111.016C111.52 75.0943 111.775 75.4095 111.775 76.0399V93.0544C111.775 93.6848 111.52 94 111.016 94ZM108.745 72.2576V70.3665C108.745 69.7361 109 69.421 109.504 69.421H111.016C111.52 69.421 111.78 69.7361 111.791 70.3665V72.2576C111.78 72.888 111.52 73.2032 111.016 73.2032H109.482C108.989 73.2032 108.745 72.888 108.745 72.2576Z" fill="white"/>
<path d="M115.962 94H114.444C113.94 94 113.686 93.6848 113.686 93.0544V76.0399C113.686 75.4095 113.94 75.0943 114.444 75.0943H131.11C133.636 75.0943 134.898 76.6702 134.898 79.8221V93.0544C134.898 93.6848 134.644 94 134.14 94H132.644C132.124 94 131.869 93.6848 131.869 93.0544V78.8765L116.737 78.8599L116.721 93.0599C116.715 93.6737 116.466 93.9889 115.962 94Z" fill="white"/>
<path d="M139.822 85.8549V93.06C139.822 93.6904 139.567 94.0055 139.063 94.0055H137.546C137.042 94.0055 136.787 93.6904 136.787 93.06V68.481C136.798 67.8506 137.053 67.5354 137.546 67.5354H139.063C139.567 67.5354 139.822 67.8506 139.822 68.481V83.245C140.077 82.8524 140.454 82.4985 140.958 82.1888L151.941 75.0999H158L143.605 84.5555L158 94.0111H151.941L140.958 86.9221C140.454 86.5959 140.072 86.242 139.822 85.8549Z" fill="white"/>
<path d="M97.1433 17.7196C92.8272 19.3669 89.4118 21.9998 86.7314 25.8197C87.2214 26.0283 87.5961 26.1865 87.9636 26.3448C91.9265 28.0569 95.3347 30.4164 97.309 34.4233C98.0079 35.8405 97.9935 35.862 96.6533 36.7037C90.9538 40.2718 85.0886 43.5305 78.6686 45.6454C78.1786 45.8109 77.6742 45.9332 77.0762 45.8828C81.5868 42.322 86.0974 38.7611 90.8313 35.0204C90.118 34.8549 89.6712 34.747 89.2173 34.6535C86.7458 34.1284 84.3897 33.3011 82.3289 31.8048C78.7622 29.2007 77.8399 25.5895 79.6917 21.5826C82.927 14.6119 91.3501 12.6696 97.1433 17.7196Z" fill="white"/>
<path d="M88.9873 10.9C88.8432 9.72022 88.8 8.57643 88.5406 7.49018C88.0146 5.32488 86.6168 3.8214 84.5776 2.97255C84.1453 2.79271 83.5328 2.82868 83.0717 2.97255C80.557 3.77105 78.0567 4.63429 75.4844 5.32488C78.3521 3.56963 81.2127 1.80717 84.1021 0.0950776C84.3903 -0.0775708 84.9091 0.0159471 85.2838 0.131046C93.9447 2.75674 100.177 8.18078 103.996 16.3744C104.155 16.7197 104.306 17.065 104.472 17.4031C104.501 17.4606 104.58 17.5038 104.753 17.6549C107.023 15.1946 109.292 12.7272 111.562 10.2598C111.634 10.2957 111.699 10.3389 111.771 10.3748C109.854 14.6479 107.945 18.9209 105.978 23.3163C103.052 21.3524 100.221 19.6115 98.5345 16.36C96.726 12.8711 93.6132 11.0007 89.5638 10.9288C89.3404 10.9216 89.117 10.9072 88.9873 10.9Z" fill="#E2383A"/>
<path d="M51 47.5517C60.0428 40.1782 69.1865 32.9773 76.9035 23.9493C76.8458 26.6757 77.0764 29.2366 79.2813 31.2221C71.0383 38.833 61.837 44.6095 51 47.5517Z" fill="white"/>
<path d="M96.9492 1.69206C99.5288 1.44028 102.231 1.46187 104.76 2.72795C107.325 4.00124 108.723 7.224 107.909 9.94322C107.815 10.2597 107.433 10.6122 107.109 10.7201C105.927 11.123 104.587 11.9143 103.564 11.6337C102.613 11.3748 101.899 9.98638 101.229 8.99365C100.523 7.95057 100.004 6.78519 99.363 5.69894C98.592 4.37531 97.785 3.08044 96.9492 1.69206Z" fill="white"/>
</svg>
