<svg width="138" height="23" viewBox="0 0 138 23" fill="none" xmlns="http://www.w3.org/2000/svg">
<path d="M25.9414 22.3231C25.9414 22.3231 44.6572 17.592 57.6251 3.86914H65.0022V22.6328H56.7731L49.396 17.9801H60.1888V9.21954C60.1888 9.21954 40.8528 23.6402 25.9414 22.3231Z" fill="#E2383A"/>
<path d="M71.0481 9.23136H81.2756C81.6171 9.23136 81.786 9.45087 81.786 9.88988L81.7742 11.2422C81.7742 11.689 81.6014 11.9124 81.252 11.9124H71.0481L71.0598 19.9674L81.2481 19.9557C81.6054 19.9557 81.786 20.1791 81.786 20.626L81.7742 21.9665C81.7742 22.4133 81.6014 22.6368 81.252 22.6368H71.6017C69.8035 22.6368 68.9044 21.5196 68.9044 19.2854V11.9124H67.2947C66.9374 11.9124 66.7568 11.689 66.7568 11.2422V9.90163C66.7568 9.45479 66.9374 9.23136 67.2947 9.23136H68.9044V4.53947C68.9044 4.09262 69.085 3.8692 69.4423 3.8692H70.518C70.8753 3.8692 71.0559 4.09262 71.0559 4.53947V9.23136H71.0481Z" fill="#132945"/>
<path d="M85.2804 9.23135H95.4843C97.2746 9.23135 98.1698 10.3485 98.1698 12.5827V21.9626C98.1698 22.4094 97.9892 22.6328 97.6319 22.6328H96.5719C96.2028 22.6328 96.0222 22.4094 96.0222 21.9626V11.9124L85.2961 11.9007L85.2843 21.9665C85.2843 22.4055 85.1037 22.6289 84.7464 22.6368H83.6707C83.3134 22.6368 83.1328 22.4133 83.1328 21.9665V4.54338C83.1328 4.09653 83.3134 3.87311 83.6707 3.87311H84.7464C85.1037 3.87311 85.2843 4.09653 85.2843 4.54338V9.23135H85.2804Z" fill="#132945"/>
<path d="M101.134 22.6329H100.062C99.7051 22.6329 99.5245 22.4095 99.5245 21.9626L99.5127 4.53953H99.5245C99.5245 4.09269 99.7051 3.86926 100.062 3.86926H101.134C101.491 3.86926 101.672 4.09269 101.672 4.53953V21.9626C101.672 22.4095 101.491 22.6329 101.134 22.6329Z" fill="#132945"/>
<path d="M104.636 22.6329H103.564C103.207 22.6329 103.026 22.4095 103.026 21.9626L103.015 9.90167H103.026C103.026 9.45482 103.207 9.2314 103.564 9.2314H104.636C104.993 9.2314 105.174 9.45482 105.174 9.90167V21.9626C105.174 22.4095 104.993 22.6329 104.636 22.6329ZM103.026 7.22059V5.88005C103.026 5.4332 103.207 5.20978 103.564 5.20978H104.636C104.993 5.20978 105.178 5.4332 105.186 5.88005V7.22059C105.178 7.66743 104.993 7.89086 104.636 7.89086H103.549C103.199 7.89086 103.026 7.66743 103.026 7.22059Z" fill="#132945"/>
<path d="M108.142 22.6329H107.066C106.709 22.6329 106.528 22.4094 106.528 21.9626V9.90165C106.528 9.45481 106.709 9.23138 107.066 9.23138H118.88C120.67 9.23138 121.565 10.3485 121.565 12.5827V21.9626C121.565 22.4094 121.385 22.6329 121.027 22.6329H119.967C119.598 22.6329 119.418 22.4094 119.418 21.9626V11.9125L108.692 11.9007L108.68 21.9665C108.676 22.4016 108.499 22.625 108.142 22.6329Z" fill="#132945"/>
<path d="M125.056 16.8591V21.9665C125.056 22.4133 124.875 22.6368 124.518 22.6368H123.442C123.085 22.6368 122.904 22.4133 122.904 21.9665V4.54338C122.912 4.09653 123.093 3.87311 123.442 3.87311H124.518C124.875 3.87311 125.056 4.09653 125.056 4.54338V15.009C125.236 14.7307 125.503 14.4798 125.861 14.2603L133.646 9.23527H137.941L127.737 15.938L137.941 22.6407H133.646L125.861 17.6156C125.503 17.3843 125.232 17.1335 125.056 16.8591Z" fill="#132945"/>
<path d="M22.0349 8.4617C19.9738 9.24836 18.3429 10.5057 17.0629 12.3298C17.2968 12.4294 17.4758 12.505 17.6512 12.5805C19.5437 13.3981 21.1712 14.5249 22.114 16.4383C22.4478 17.115 22.4409 17.1253 21.8009 17.5273C19.0792 19.2311 16.2784 20.7873 13.2126 21.7973C12.9786 21.8763 12.7377 21.9347 12.4521 21.9106C14.6061 20.2102 16.7601 18.5097 19.0207 16.7234C18.6801 16.6444 18.4667 16.5929 18.25 16.5482C17.0697 16.2975 15.9446 15.9024 14.9605 15.1879C13.2573 13.9443 12.8169 12.2198 13.7012 10.3064C15.2461 6.97768 19.2684 6.05017 22.0349 8.4617Z" fill="#132945"/>
<path d="M18.1405 5.20512C18.0717 4.64174 18.051 4.09554 17.9272 3.57682C17.676 2.54281 17.0085 1.82485 16.0347 1.41949C15.8283 1.33361 15.5358 1.35079 15.3156 1.41949C14.1147 1.8008 12.9208 2.21303 11.6924 2.54281C13.0618 1.70462 14.4278 0.862987 15.8076 0.0454028C15.9453 -0.0370427 16.193 0.00761528 16.3719 0.0625789C20.5078 1.31644 23.4841 3.9066 25.3078 7.81932C25.3835 7.98422 25.4557 8.14911 25.5349 8.31056C25.5486 8.33805 25.5865 8.35866 25.6691 8.4308C26.7529 7.25595 27.8368 6.07766 28.9206 4.89938C28.955 4.91656 28.986 4.93717 29.0204 4.95434C28.1052 6.99487 27.1933 9.03539 26.254 11.1343C24.857 10.1965 23.5048 9.36518 22.6996 7.81245C21.836 6.14637 20.3495 5.25321 18.4158 5.21886C18.3091 5.21542 18.2024 5.20855 18.1405 5.20512Z" fill="#E2383A"/>
<path d="M0 22.7076C4.31825 19.1865 8.68466 15.7479 12.3698 11.4366C12.3423 12.7386 12.4524 13.9615 13.5053 14.9097C9.56896 18.5441 5.17501 21.3026 0 22.7076Z" fill="#132945"/>
<path d="M21.9424 0.808063C23.1742 0.68783 24.4645 0.698135 25.6722 1.30274C26.8972 1.91077 27.5647 3.44975 27.1759 4.74827C27.1312 4.89942 26.9488 5.06775 26.794 5.11927C26.2297 5.31165 25.5897 5.68952 25.1011 5.55555C24.6469 5.43188 24.3062 4.76888 23.9862 4.29482C23.649 3.79671 23.4013 3.2402 23.0951 2.72148C22.7269 2.0894 22.3415 1.47106 21.9424 0.808063Z" fill="#132945"/>
</svg>
